<svg width="194" height="27" viewBox="0 0 194 27" fill="none" xmlns="http://www.w3.org/2000/svg">
<path d="M17.4783 8.73932L3.76214 0.63044C2.6477 -0.0280901 0.940979 0.610957 0.940979 2.23975V18.4536C0.940979 19.9149 2.52691 20.7955 3.76214 20.0629L17.4783 11.9579C18.7018 11.2371 18.7057 9.4602 17.4783 8.73932Z" fill="#B5E5FF"/>
<path d="M38.8723 1.97058H25.1562C24.1236 1.97058 23.2858 2.80836 23.2858 3.84096V17.5571C23.2858 18.5897 24.1236 19.4275 25.1562 19.4275H38.8723C39.9049 19.4275 40.7427 18.5897 40.7427 17.5571V3.84096C40.7427 2.80836 39.9049 1.97058 38.8723 1.97058Z" fill="#B5E5FF"/>
<rect x="45.6306" y="7.55664" width="147.635" height="6.38424" rx="3" fill="#B5E5FF"/>
<rect x="45.6306" y="7.55664" width="34.3153" height="6.38424" rx="3" fill="#FFD7C2"/>
<g filter="url(#filter0_d_62_86)">
<circle cx="79.1479" cy="10.7488" r="7.9803" fill="#FFB389"/>
<circle cx="79.1479" cy="10.7488" r="7.4803" stroke="#FF9256"/>
</g>
<defs>
<filter id="filter0_d_62_86" x="67.1676" y="2.76855" width="23.9606" height="23.9606" filterUnits="userSpaceOnUse" color-interpolation-filters="sRGB">
<feFlood flood-opacity="0" result="BackgroundImageFix"/>
<feColorMatrix in="SourceAlpha" type="matrix" values="0 0 0 0 0 0 0 0 0 0 0 0 0 0 0 0 0 0 127 0" result="hardAlpha"/>
<feOffset dy="4"/>
<feGaussianBlur stdDeviation="2"/>
<feComposite in2="hardAlpha" operator="out"/>
<feColorMatrix type="matrix" values="0 0 0 0 0 0 0 0 0 0 0 0 0 0 0 0 0 0 0.25 0"/>
<feBlend mode="normal" in2="BackgroundImageFix" result="effect1_dropShadow_62_86"/>
<feBlend mode="normal" in="SourceGraphic" in2="effect1_dropShadow_62_86" result="shape"/>
</filter>
</defs>
</svg>
