<svg width="133" height="17" viewBox="0 0 133 17" fill="none" xmlns="http://www.w3.org/2000/svg">
<path d="M0.784 12.1428V3.42082H3.36C4.38667 3.42082 5.124 3.64949 5.572 4.10682C6.02933 4.56416 6.258 5.16616 6.258 5.91282C6.258 6.23949 6.18333 6.56616 6.034 6.89282C5.894 7.21949 5.68867 7.50416 5.418 7.74682C5.15667 7.98949 4.844 8.15749 4.48 8.25082L6.496 12.1428H5.404L3.472 8.29282H1.778V12.1428H0.784ZM1.778 7.42482H3.472C4.09733 7.42482 4.55 7.28949 4.83 7.01882C5.11 6.73882 5.25 6.37016 5.25 5.91282C5.25 5.47416 5.11 5.10549 4.83 4.80682C4.55 4.49882 4.09733 4.34482 3.472 4.34482H1.778V7.42482ZM9.954 12.2968C9.226 12.2968 8.666 12.1335 8.274 11.8068C7.882 11.4708 7.686 11.0462 7.686 10.5328C7.686 10.0755 7.83067 9.68349 8.12 9.35682C8.40933 9.02082 8.79667 8.76416 9.282 8.58682C9.77667 8.40016 10.318 8.30682 10.906 8.30682C11.1207 8.30682 11.3447 8.31149 11.578 8.32082C11.8207 8.33016 12.0773 8.35349 12.348 8.39082C12.292 7.64416 12.096 7.13082 11.76 6.85082C11.4333 6.57082 10.962 6.43082 10.346 6.43082C10.038 6.43082 9.73467 6.49149 9.436 6.61282C9.13733 6.72482 8.86667 6.90216 8.624 7.14482L8.134 6.50082C8.43267 6.20216 8.778 5.97816 9.17 5.82882C9.562 5.67949 9.97733 5.60482 10.416 5.60482C10.9853 5.60482 11.48 5.69816 11.9 5.88482C12.32 6.07149 12.6467 6.39349 12.88 6.85082C13.1133 7.30816 13.23 7.93816 13.23 8.74082V12.1428H12.138V11.1628C11.9793 11.4708 11.774 11.7088 11.522 11.8768C11.2793 12.0355 11.018 12.1428 10.738 12.1988C10.4673 12.2642 10.206 12.2968 9.954 12.2968ZM8.694 10.4768C8.694 10.8782 8.82467 11.1535 9.086 11.3028C9.34733 11.4522 9.66933 11.5268 10.052 11.5268C10.7427 11.5268 11.2887 11.3262 11.69 10.9248C12.0913 10.5142 12.3107 9.92616 12.348 9.16082C11.8627 9.09549 11.41 9.06282 10.99 9.06282C10.318 9.06282 9.76733 9.17482 9.338 9.39882C8.90867 9.62282 8.694 9.98216 8.694 10.4768ZM18.186 12.2408C17.6353 12.2408 17.2153 12.1148 16.926 11.8628C16.646 11.6108 16.4593 11.2235 16.366 10.7008C16.2727 10.1688 16.24 9.49216 16.268 8.67082L16.352 6.57082H14.98V5.74482H16.38L16.436 4.10682L17.486 3.98082L17.626 3.96682L17.64 4.06482C17.5933 4.13016 17.5513 4.19549 17.514 4.26082C17.486 4.32615 17.4627 4.43815 17.444 4.59682L17.346 5.74482H19.586V6.57082H17.36L17.262 8.74082C17.234 9.45016 17.2527 10.0008 17.318 10.3928C17.3833 10.7755 17.5 11.0415 17.668 11.1908C17.836 11.3308 18.06 11.4008 18.34 11.4008C18.648 11.4008 18.9187 11.3402 19.152 11.2188C19.3947 11.0975 19.6467 10.9435 19.908 10.7568L20.216 11.5548C19.8987 11.7882 19.572 11.9608 19.236 12.0728C18.9 12.1848 18.55 12.2408 18.186 12.2408ZM22.4 12.1428V11.3308H24.038V6.55682H22.484V5.74482H25.046V11.3308H26.544V12.1428H22.4ZM24.486 4.40082C24.29 4.40082 24.122 4.33082 23.982 4.19082C23.842 4.05082 23.772 3.88282 23.772 3.68682C23.772 3.48149 23.8373 3.30882 23.968 3.16882C24.108 3.02882 24.2807 2.95882 24.486 2.95882C24.682 2.95882 24.85 3.03349 24.99 3.18282C25.1393 3.32282 25.214 3.49082 25.214 3.68682C25.214 3.88282 25.1393 4.05082 24.99 4.19082C24.85 4.33082 24.682 4.40082 24.486 4.40082ZM29.008 12.1428V5.74482H29.988V6.87882C30.2307 6.48682 30.5433 6.17416 30.926 5.94082C31.318 5.70749 31.7287 5.59082 32.158 5.59082C32.6807 5.59082 33.124 5.79616 33.488 6.20682C33.852 6.60816 34.034 7.29416 34.034 8.26482V12.1428H33.054V8.29282C33.054 7.62082 32.9373 7.14949 32.704 6.87882C32.48 6.60816 32.2047 6.47282 31.878 6.47282C31.598 6.47282 31.3087 6.55682 31.01 6.72482C30.7207 6.88349 30.478 7.11216 30.282 7.41082C30.086 7.70016 29.988 8.05016 29.988 8.46082V12.1428H29.008ZM38.164 9.97282C37.8 9.97282 37.4687 9.90749 37.17 9.77682C37.002 9.98216 36.918 10.1782 36.918 10.3648C36.918 10.5888 37.058 10.7522 37.338 10.8548C37.618 10.9482 38.1313 10.9948 38.878 10.9948C39.5313 10.9948 40.026 11.0648 40.362 11.2048C40.698 11.3448 40.9267 11.5362 41.048 11.7788C41.1693 12.0215 41.23 12.3015 41.23 12.6188C41.23 12.9455 41.1413 13.2582 40.964 13.5568C40.7867 13.8555 40.4927 14.0935 40.082 14.2708C39.6807 14.4575 39.1393 14.5508 38.458 14.5508C37.562 14.5508 36.848 14.4108 36.316 14.1308C35.7933 13.8602 35.532 13.4495 35.532 12.8988C35.532 12.5535 35.63 12.2595 35.826 12.0168C36.022 11.7648 36.2553 11.5782 36.526 11.4568C36.218 11.2515 36.064 10.9668 36.064 10.6028C36.064 10.3975 36.1153 10.1968 36.218 10.0008C36.3207 9.80482 36.4607 9.61349 36.638 9.42682C36.162 9.00682 35.924 8.44216 35.924 7.73282C35.924 7.32216 36.0127 6.94882 36.19 6.61282C36.3767 6.27682 36.638 6.01082 36.974 5.81482C37.31 5.60949 37.7067 5.50682 38.164 5.50682C38.5093 5.50682 38.8173 5.56749 39.088 5.68882C39.368 5.80082 39.606 5.95949 39.802 6.16482C40.0447 5.94082 40.3013 5.78216 40.572 5.68882C40.8427 5.58616 41.16 5.54882 41.524 5.57682L41.65 6.40282C41.37 6.37482 41.104 6.37949 40.852 6.41682C40.6093 6.45416 40.3807 6.54282 40.166 6.68282C40.3247 7.00016 40.404 7.35016 40.404 7.73282C40.404 8.14349 40.3107 8.52149 40.124 8.86682C39.9467 9.20282 39.69 9.47349 39.354 9.67882C39.0273 9.87482 38.6307 9.97282 38.164 9.97282ZM38.164 9.13282C38.5747 9.13282 38.9107 8.99749 39.172 8.72682C39.4333 8.44682 39.564 8.11549 39.564 7.73282C39.564 7.35016 39.4333 7.02349 39.172 6.75282C38.9107 6.47282 38.5747 6.33282 38.164 6.33282C37.7627 6.33282 37.4267 6.47282 37.156 6.75282C36.8947 7.02349 36.764 7.35016 36.764 7.73282C36.764 8.11549 36.8947 8.44682 37.156 8.72682C37.4267 8.99749 37.7627 9.13282 38.164 9.13282ZM36.456 12.7868C36.456 13.1042 36.6333 13.3515 36.988 13.5288C37.352 13.7062 37.8467 13.7948 38.472 13.7948C39.1067 13.7948 39.5687 13.6968 39.858 13.5008C40.1567 13.3142 40.306 13.0715 40.306 12.7728C40.306 12.5675 40.2687 12.3995 40.194 12.2688C40.1193 12.1382 39.9653 12.0402 39.732 11.9748C39.4987 11.9095 39.144 11.8768 38.668 11.8768C38.3413 11.8768 38.0427 11.8628 37.772 11.8348C37.5107 11.8068 37.2727 11.7602 37.058 11.6948C36.8433 11.8442 36.6893 11.9935 36.596 12.1428C36.5027 12.3015 36.456 12.5162 36.456 12.7868Z" fill="white"/>
<path d="M52.5714 4.14282L53.694 7.78968H57.3267L54.3878 10.0436L55.5104 13.6904L52.5714 11.4365L49.6325 13.6904L50.7551 10.0436L47.8161 7.78968H51.4489L52.5714 4.14282Z" fill="#FF9256"/>
<path d="M63 4.14282L64.1226 7.78968H67.7553L64.8164 10.0436L65.9389 13.6904L63 11.4365L60.0611 13.6904L61.1836 10.0436L58.2447 7.78968H61.8774L63 4.14282Z" fill="#FF9256"/>
<path d="M73.4286 4.14282L74.5511 7.78968H78.1839L75.2449 10.0436L76.3675 13.6904L73.4286 11.4365L70.4896 13.6904L71.6122 10.0436L68.6733 7.78968H72.306L73.4286 4.14282Z" fill="#FF9256"/>
<path d="M83.8571 4.14282L84.9797 7.78968H88.6124L85.6735 10.0436L86.7961 13.6904L83.8571 11.4365L80.9182 13.6904L82.0408 10.0436L79.1019 7.78968H82.7346L83.8571 4.14282Z" fill="#FF9256"/>
<path d="M94.2857 4.14282L95.4083 7.78968H99.041L96.1021 10.0436L97.2246 13.6904L94.2857 11.4365L91.3468 13.6904L92.4694 10.0436L89.5304 7.78968H93.1632L94.2857 4.14282Z" fill="#C4C4C4"/>
<path d="M130.973 4.32603C129.367 2.95789 126.98 3.20398 125.506 4.72446L124.929 5.31917L124.352 4.72446C122.881 3.20398 120.49 2.95789 118.885 4.32603C117.045 5.89631 116.948 8.71462 118.595 10.4167L124.264 16.2701C124.63 16.6481 125.225 16.6481 125.591 16.2701L131.26 10.4167C132.909 8.71462 132.812 5.89631 130.973 4.32603Z" fill="#E20000"/>
</svg>
