<svg width="210" height="210" viewBox="0 0 210 210" fill="none" xmlns="http://www.w3.org/2000/svg">
<circle cx="105" cy="105" r="105" fill="#6DB04E"/>
<ellipse cx="92.5" cy="104.5" rx="45.5" ry="46.5" fill="black" fill-opacity="0.75"/>
<path d="M165.239 29.6395C163.78 26.2464 159.613 26.1106 157.868 29.3137C149.795 43.9448 135.34 53.0654 118.828 53.0654H97.9929C70.3861 53.0654 47.9881 76.4099 47.9881 105.183C47.9881 107.084 48.1965 108.902 48.3788 110.748C64.9949 98.3429 88.9816 87.8108 122.995 87.8108C125.287 87.8108 127.162 89.7652 127.162 92.1539C127.162 94.5427 125.287 96.4971 122.995 96.4971C57.5203 96.4971 29.7572 138.327 23.6108 154.044C21.8919 158.469 23.9233 163.518 28.1685 165.336C32.4398 167.182 37.284 165.038 39.055 160.64C39.4456 159.663 44.4982 147.638 57.7807 136.047C66.219 147.964 82.2622 159.337 103.332 157.003C144.221 153.908 173 115.688 173 68.8908C173 55.2642 170.187 41.1489 165.239 29.6395Z" fill="black"/>
<path d="M90.164 67.8V93H87.968L71.768 72.552V93H69.104V67.8H71.3L87.536 88.248V67.8H90.164ZM114.913 74.064V93H112.465V89.544C111.793 90.696 110.869 91.596 109.693 92.244C108.517 92.868 107.173 93.18 105.661 93.18C103.189 93.18 101.233 92.496 99.7932 91.128C98.3772 89.736 97.6692 87.708 97.6692 85.044V74.064H100.225V84.792C100.225 86.784 100.717 88.296 101.701 89.328C102.685 90.36 104.089 90.876 105.913 90.876C107.905 90.876 109.477 90.276 110.629 89.076C111.781 87.852 112.357 86.16 112.357 84V74.064H114.913ZM132.044 91.848C131.564 92.28 130.964 92.616 130.244 92.856C129.548 93.072 128.816 93.18 128.048 93.18C126.272 93.18 124.904 92.7 123.944 91.74C122.984 90.78 122.504 89.424 122.504 87.672V76.224H119.12V74.064H122.504V69.924H125.06V74.064H130.82V76.224H125.06V87.528C125.06 88.656 125.336 89.52 125.888 90.12C126.464 90.696 127.28 90.984 128.336 90.984C128.864 90.984 129.368 90.9 129.848 90.732C130.352 90.564 130.784 90.324 131.144 90.012L132.044 91.848ZM139.145 77.772C139.745 76.5 140.633 75.54 141.809 74.892C143.009 74.244 144.485 73.92 146.237 73.92V76.404L145.625 76.368C143.633 76.368 142.073 76.98 140.945 78.204C139.817 79.428 139.253 81.144 139.253 83.352V93H136.697V74.064H139.145V77.772ZM157.454 73.92C159.926 73.92 161.822 74.544 163.142 75.792C164.462 77.016 165.122 78.84 165.122 81.264V93H162.674V90.048C162.098 91.032 161.246 91.8 160.118 92.352C159.014 92.904 157.694 93.18 156.158 93.18C154.046 93.18 152.366 92.676 151.118 91.668C149.87 90.66 149.246 89.328 149.246 87.672C149.246 86.064 149.822 84.768 150.974 83.784C152.15 82.8 154.01 82.308 156.554 82.308H162.566V81.156C162.566 79.524 162.11 78.288 161.198 77.448C160.286 76.584 158.954 76.152 157.202 76.152C156.002 76.152 154.85 76.356 153.746 76.764C152.642 77.148 151.694 77.688 150.902 78.384L149.75 76.476C150.71 75.66 151.862 75.036 153.206 74.604C154.55 74.148 155.966 73.92 157.454 73.92ZM156.554 91.164C157.994 91.164 159.23 90.84 160.262 90.192C161.294 89.52 162.062 88.56 162.566 87.312V84.216H156.626C153.386 84.216 151.766 85.344 151.766 87.6C151.766 88.704 152.186 89.58 153.026 90.228C153.866 90.852 155.042 91.164 156.554 91.164Z" fill="white"/>
<path d="M77.268 125.432C75.276 125.432 73.344 125.168 71.472 124.64C69.624 124.088 68.136 123.38 67.008 122.516L68.988 118.124C70.068 118.916 71.352 119.552 72.84 120.032C74.328 120.512 75.816 120.752 77.304 120.752C78.96 120.752 80.184 120.512 80.976 120.032C81.768 119.528 82.164 118.868 82.164 118.052C82.164 117.452 81.924 116.96 81.444 116.576C80.988 116.168 80.388 115.844 79.644 115.604C78.924 115.364 77.94 115.1 76.692 114.812C74.772 114.356 73.2 113.9 71.976 113.444C70.752 112.988 69.696 112.256 68.808 111.248C67.944 110.24 67.512 108.896 67.512 107.216C67.512 105.752 67.908 104.432 68.7 103.256C69.492 102.056 70.68 101.108 72.264 100.412C73.872 99.716 75.828 99.368 78.132 99.368C79.74 99.368 81.312 99.56 82.848 99.944C84.384 100.328 85.728 100.88 86.88 101.6L85.08 106.028C82.752 104.708 80.424 104.048 78.096 104.048C76.464 104.048 75.252 104.312 74.46 104.84C73.692 105.368 73.308 106.064 73.308 106.928C73.308 107.792 73.752 108.44 74.64 108.872C75.552 109.28 76.932 109.688 78.78 110.096C80.7 110.552 82.272 111.008 83.496 111.464C84.72 111.92 85.764 112.64 86.628 113.624C87.516 114.608 87.96 115.94 87.96 117.62C87.96 119.06 87.552 120.38 86.736 121.58C85.944 122.756 84.744 123.692 83.136 124.388C81.528 125.084 79.572 125.432 77.268 125.432ZM91.549 105.632H97.165V125H91.549V105.632ZM94.357 102.932C93.325 102.932 92.485 102.632 91.837 102.032C91.189 101.432 90.865 100.688 90.865 99.8C90.865 98.912 91.189 98.168 91.837 97.568C92.485 96.968 93.325 96.668 94.357 96.668C95.389 96.668 96.229 96.956 96.877 97.532C97.525 98.108 97.849 98.828 97.849 99.692C97.849 100.628 97.525 101.408 96.877 102.032C96.229 102.632 95.389 102.932 94.357 102.932ZM114.869 124.064C114.317 124.472 113.633 124.784 112.817 125C112.025 125.192 111.185 125.288 110.297 125.288C107.993 125.288 106.205 124.7 104.933 123.524C103.685 122.348 103.061 120.62 103.061 118.34V110.384H100.073V106.064H103.061V101.348H108.677V106.064H113.501V110.384H108.677V118.268C108.677 119.084 108.881 119.72 109.289 120.176C109.721 120.608 110.321 120.824 111.089 120.824C111.977 120.824 112.733 120.584 113.357 120.104L114.869 124.064ZM136.396 115.388C136.396 115.46 136.36 115.964 136.288 116.9H121.636C121.9 118.1 122.524 119.048 123.508 119.744C124.492 120.44 125.716 120.788 127.18 120.788C128.188 120.788 129.076 120.644 129.844 120.356C130.636 120.044 131.368 119.564 132.04 118.916L135.028 122.156C133.204 124.244 130.54 125.288 127.036 125.288C124.852 125.288 122.92 124.868 121.24 124.028C119.56 123.164 118.264 121.976 117.352 120.464C116.44 118.952 115.984 117.236 115.984 115.316C115.984 113.42 116.428 111.716 117.316 110.204C118.228 108.668 119.464 107.48 121.024 106.64C122.608 105.776 124.372 105.344 126.316 105.344C128.212 105.344 129.928 105.752 131.464 106.568C133 107.384 134.2 108.56 135.064 110.096C135.952 111.608 136.396 113.372 136.396 115.388ZM126.352 109.592C125.08 109.592 124.012 109.952 123.148 110.672C122.284 111.392 121.756 112.376 121.564 113.624H131.104C130.912 112.4 130.384 111.428 129.52 110.708C128.656 109.964 127.6 109.592 126.352 109.592Z" fill="#46DA00"/>
</svg>
